<svg width="22" height="21" viewBox="0 0 22 21" fill="none" xmlns="http://www.w3.org/2000/svg">
<path d="M21.2668 8.30012H20.5336V3.90089C20.5336 3.70643 20.4563 3.51994 20.3188 3.38243C20.1813 3.24493 19.9948 3.16768 19.8004 3.16768H2.20347C2.02986 3.17051 1.86087 3.11164 1.72661 3.00154C1.59234 2.89144 1.5015 2.73726 1.47027 2.56645V2.3025C1.5015 2.1317 1.59234 1.97752 1.72661 1.86742C1.86087 1.75732 2.02986 1.69844 2.20347 1.70127H19.4924C19.6869 1.70127 19.8734 1.62402 20.0109 1.48652C20.1484 1.34902 20.2256 1.16253 20.2256 0.968068C20.2256 0.77361 20.1484 0.587117 20.0109 0.449614C19.8734 0.312112 19.6869 0.234863 19.4924 0.234863H2.20347C1.6201 0.234863 1.06062 0.466608 0.648112 0.879115C0.235604 1.29162 0.00385976 1.8511 0.00385976 2.43448C-0.00128659 2.52239 -0.00128659 2.61052 0.00385976 2.69843V17.7805C0.00673779 18.1752 0.087347 18.5656 0.241085 18.9292C0.394822 19.2928 0.618677 19.6226 0.899868 19.8997C1.18106 20.1768 1.51408 20.3958 1.87991 20.5442C2.24574 20.6926 2.63722 20.7675 3.032 20.7646H19.8004C19.9948 20.7646 20.1813 20.6873 20.3188 20.5498C20.4563 20.4123 20.5336 20.2259 20.5336 20.0314V15.6322H21.2668C21.4613 15.6322 21.6477 15.5549 21.7852 15.4174C21.9228 15.2799 22 15.0934 22 14.899V9.03332C22 8.83886 21.9228 8.65237 21.7852 8.51487C21.6477 8.37736 21.4613 8.30012 21.2668 8.30012ZM19.0672 19.2982H3.032C2.62419 19.3021 2.23132 19.1449 1.93885 18.8607C1.64639 18.5764 1.47798 18.1882 1.47027 17.7805V4.54611C1.70827 4.61508 1.95592 4.6448 2.20347 4.63409H19.0672V8.30012H13.9347C12.9625 8.30012 12.03 8.68636 11.3425 9.37387C10.655 10.0614 10.2687 10.9938 10.2687 11.9661C10.2687 12.9384 10.655 13.8709 11.3425 14.5584C12.03 15.2459 12.9625 15.6322 13.9347 15.6322H19.0672V19.2982ZM20.5336 14.1658H13.9347C13.3514 14.1658 12.7919 13.934 12.3794 13.5215C11.9669 13.109 11.7351 12.5495 11.7351 11.9661C11.7351 11.3828 11.9669 10.8233 12.3794 10.4108C12.7919 9.99827 13.3514 9.76653 13.9347 9.76653H20.5336V14.1658Z" fill="#384255"/>
</svg>
