<svg width="24" height="23" viewBox="0 0 24 23" fill="none" xmlns="http://www.w3.org/2000/svg">
<path d="M17.9643 13.6483L15.3352 11.0236L19.491 6.86787L19.9674 7.34435C20.3001 7.67705 20.8628 7.57462 21.0573 7.1467L23.4397 1.90553C23.5559 1.64983 23.5014 1.34885 23.3027 1.15021L22.3497 0.197372C22.1511 -0.00122778 21.8501 -0.0558079 21.5944 0.0604051L16.3533 2.44275C15.9255 2.63721 15.8232 3.20027 16.1556 3.53264L16.6321 4.00913L12.4763 8.1649L9.85166 5.53575C10.1199 4.0275 9.63644 2.46144 8.54381 1.36876C7.14269 -0.0323586 4.99049 -0.398023 3.1884 0.458817C2.99065 0.552839 2.8509 0.737063 2.81371 0.952823C2.77647 1.16858 2.84645 1.38897 3.00125 1.54382L4.54297 3.07727V4.04296H3.58173L2.04833 2.49674C1.89353 2.34194 1.67314 2.27195 1.45733 2.30919C1.24157 2.34639 1.05735 2.48614 0.963283 2.68389C-0.0480436 4.81089 0.640294 7.31466 2.59992 8.63725C3.60217 9.31373 4.83748 9.56561 6.04283 9.3498L7.11296 10.4244C6.64132 10.4558 6.17867 10.6508 5.81898 11.0105C5.19457 11.6349 5.06541 12.5634 5.42362 13.3117L1.09257 17.6442C0.302527 18.4342 0.302437 19.7129 1.09257 20.503L2.99842 22.4089C3.78658 23.197 5.06905 23.1971 5.85725 22.4089L10.1892 18.0755C10.9443 18.4353 11.8707 18.2999 12.4896 17.681C12.8493 17.3213 13.0442 16.8587 13.0756 16.387L14.1502 17.4572C13.9344 18.6624 14.1863 19.8979 14.8627 20.9C16.1857 22.8604 18.6897 23.5477 20.8161 22.5367C21.0139 22.4427 21.1536 22.2585 21.1908 22.0427C21.228 21.8269 21.1581 21.6065 21.0033 21.4517L19.457 19.9183V19.0019H20.4227L21.9562 20.4987C22.111 20.6535 22.3314 20.7235 22.5472 20.6863C22.7629 20.6491 22.9472 20.5093 23.0412 20.3116C23.8981 18.5095 23.5324 16.3573 22.1313 14.9561C21.0387 13.8635 19.4727 13.3801 17.9643 13.6483ZM21.7269 1.48048L22.0195 1.77305L20.2328 5.7039C20.1706 5.64173 17.9426 3.41369 17.7961 3.26724L21.7269 1.48048ZM6.73485 8.13597C6.56509 7.96616 6.31784 7.8995 6.08568 7.96109C5.15126 8.20888 4.12996 8.04406 3.35389 7.52022C2.24347 6.77079 1.70279 5.49276 1.88414 4.23846L2.82615 5.14835C2.95256 5.27471 3.12394 5.34569 3.30264 5.34569H5.2168C5.58893 5.34569 5.89063 5.04399 5.89063 4.67186V2.79817C5.89063 2.61947 5.81961 2.44805 5.69324 2.32168L4.74445 1.38115C5.77419 1.23426 6.8361 1.56691 7.59088 2.32173C8.43887 3.16972 8.77313 4.4172 8.46322 5.57735C8.40113 5.80978 8.46766 6.05761 8.63774 6.22773L11.5234 9.11787L10.979 9.66223C10.2322 9.30475 9.30353 9.43183 8.67781 10.0576L8.66492 10.0705L6.73485 8.13597ZM4.90433 21.4559C4.64158 21.7187 4.2141 21.7187 3.95135 21.4559L2.0455 19.55C1.78216 19.2867 1.78212 18.8605 2.0455 18.5971L6.29547 14.3457C6.66405 14.7143 8.8407 16.891 9.15425 17.2046L4.90433 21.4559ZM11.5366 16.7281C11.2738 16.9908 10.8464 16.9908 10.5836 16.7281L6.77186 12.9163C6.50862 12.653 6.50858 12.2268 6.77191 11.9634C7.03528 11.7001 7.46146 11.7 7.72484 11.9634L11.5366 15.7752C11.7993 16.0379 11.7993 16.4654 11.5366 16.7281ZM12.4895 13.8693L12.0131 14.3457L9.15425 11.4869L9.63074 11.0104C9.89407 10.7471 10.3203 10.7471 10.5837 11.0105L12.4895 12.9163C12.7522 13.179 12.7522 13.6066 12.4895 13.8693ZM12.966 11.487L12.0131 10.534L17.585 4.96206L18.5379 5.91499L12.966 11.487ZM22.1189 18.7555L21.1784 17.815C21.052 17.6886 20.8806 17.6093 20.7019 17.6093H19.0795C19.0793 17.6093 19.0791 17.6093 19.0788 17.6093H18.7961C18.4238 17.6094 18.1094 17.9111 18.1094 18.2832V18.5741C18.1094 18.5744 18.1094 18.5746 18.1094 18.5749V20.1974C18.1094 20.3761 18.1804 20.5474 18.3068 20.6738L19.2616 21.6159C18.0073 21.7972 16.7292 21.2565 15.9798 20.1461C15.4559 19.37 15.2912 18.3488 15.539 17.4143C15.6005 17.1822 15.5339 16.9349 15.3641 16.7651L13.4296 14.8351L13.4424 14.8222C14.0636 14.2011 14.1948 13.2731 13.837 12.5218L14.3822 11.9766L17.2724 14.8623C17.4424 15.0323 17.6903 15.0989 17.9227 15.0368C19.083 14.7269 20.3304 15.0612 21.1784 15.9091C21.9331 16.6639 22.2658 17.7258 22.1189 18.7555Z" fill="#384255"/>
</svg>
