<svg width="22" height="23" viewBox="0 0 22 23" fill="none" xmlns="http://www.w3.org/2000/svg">
<path d="M10.9972 7.4597C8.97738 7.4597 7.32902 9.10806 7.32902 11.1279C7.32902 13.1478 8.97738 14.7962 10.9972 14.7962C13.0171 14.7962 14.6655 13.1478 14.6655 11.1279C14.6655 9.10806 13.0171 7.4597 10.9972 7.4597ZM21.9992 11.1279C21.9992 9.6089 22.0129 8.10364 21.9276 6.58736C21.8423 4.82617 21.4406 3.26312 20.1527 1.97525C18.8621 0.684624 17.3018 0.285604 15.5406 0.200297C14.0215 0.114989 12.5163 0.128748 11 0.128748C9.48097 0.128748 7.97571 0.114989 6.45943 0.200297C4.69824 0.285604 3.13519 0.687375 1.84732 1.97525C0.556694 3.26587 0.157674 4.82617 0.0723668 6.58736C-0.0129408 8.10639 0.000818524 9.61166 0.000818524 11.1279C0.000818524 12.6442 -0.0129408 14.1522 0.0723668 15.6685C0.157674 17.4297 0.559446 18.9927 1.84732 20.2806C3.13794 21.5712 4.69824 21.9703 6.45943 22.0556C7.97846 22.1409 9.48372 22.1271 11 22.1271C12.519 22.1271 14.0243 22.1409 15.5406 22.0556C17.3018 21.9703 18.8648 21.5685 20.1527 20.2806C21.4433 18.99 21.8423 17.4297 21.9276 15.6685C22.0157 14.1522 21.9992 12.647 21.9992 11.1279ZM10.9972 16.772C7.87389 16.772 5.35318 14.2513 5.35318 11.1279C5.35318 8.00457 7.87389 5.48387 10.9972 5.48387C14.1206 5.48387 16.6413 8.00457 16.6413 11.1279C16.6413 14.2513 14.1206 16.772 10.9972 16.772ZM16.8725 6.57085C16.1432 6.57085 15.5543 5.98195 15.5543 5.25271C15.5543 4.52347 16.1432 3.93457 16.8725 3.93457C17.6017 3.93457 18.1906 4.52347 18.1906 5.25271C18.1908 5.42587 18.1569 5.59738 18.0907 5.7574C18.0245 5.91742 17.9275 6.06282 17.805 6.18526C17.6826 6.3077 17.5372 6.40479 17.3772 6.47096C17.2171 6.53712 17.0456 6.57107 16.8725 6.57085Z" fill="#909CB5"/>
</svg>
