<svg width="55" height="21" viewBox="0 0 55 21" fill="none" xmlns="http://www.w3.org/2000/svg">
<path d="M10.5428 4.17093C10.3503 3.78468 10.0457 3.46611 9.66761 3.22689C9.27319 2.98533 8.80759 2.81613 8.27547 2.71577C7.73402 2.61775 7.10855 2.57341 6.38389 2.56641L3.03831 2.56874C2.69057 2.57341 2.34983 2.84413 2.26814 3.18021L0.017144 12.9847C-0.0645408 13.3161 0.153674 13.5939 0.501418 13.5939H2.10361C2.45135 13.5939 2.79559 13.3243 2.87261 12.9847L3.42223 10.6042C3.49575 10.2728 3.83882 9.99622 4.19007 9.99622H4.64867C6.60794 9.99389 8.12494 9.59363 9.21485 8.79195C10.3106 7.98911 10.8509 6.92837 10.8509 5.61441C10.8497 5.03912 10.7552 4.55601 10.5428 4.17093ZM7.08754 7.37414C6.60327 7.72888 5.92995 7.90626 5.06176 7.90626H4.66967C4.32076 7.90626 4.10722 7.63086 4.18307 7.29479L4.66501 5.21299C4.73269 4.87925 5.08393 4.60269 5.42818 4.60502L5.95329 4.60152C6.56593 4.60152 7.03386 4.70771 7.3466 4.91309C7.65584 5.11614 7.81104 5.43938 7.8087 5.86764C7.81804 6.51878 7.56948 7.01939 7.08754 7.37414Z" fill="#858FA4"/>
<path d="M18.2702 5.57264C17.6658 5.23189 16.7112 5.06152 15.4066 5.06152C14.7613 5.06152 14.1183 5.1117 13.4683 5.21206C12.9887 5.28557 12.942 5.29957 12.6468 5.36376C12.0377 5.49679 11.942 6.10475 11.942 6.10475L11.746 6.9111C11.6351 7.42571 11.9315 7.40588 12.0552 7.3627C12.3212 7.28335 12.4694 7.20166 13.0132 7.0803C13.5325 6.96244 14.0798 6.87376 14.5139 6.87959C15.1545 6.87959 15.6446 6.94727 15.9714 7.08497C16.2935 7.225 16.4545 7.46539 16.4545 7.81313L16.4265 8.03952L16.1954 8.18188C15.2864 8.23906 14.6294 8.32308 13.8324 8.4386C13.0529 8.54713 12.3691 8.73734 11.8008 8.99756C11.1905 9.26595 10.7377 9.62654 10.4215 10.0851C10.1158 10.5461 9.96289 11.105 9.96289 11.7608C9.96289 12.3781 10.1846 12.8881 10.6152 13.2825C11.0481 13.6699 11.6199 13.859 12.3037 13.859C12.7367 13.8566 13.0716 13.8228 13.3096 13.7656L14.0856 13.4984L14.7426 13.1343L15.3471 12.7352L15.3552 12.7469L15.2946 13.0036L15.2911 13.0141V13.0165C15.2257 13.3292 15.4148 13.5859 15.7193 13.6163L15.7252 13.6233H15.7532H16.9819H17.213L17.234 13.6139C17.5537 13.5766 17.8536 13.3199 17.9236 13.0141L19.0917 7.95783L19.1524 7.54591L19.1804 7.15966C19.1851 6.44316 18.8759 5.91221 18.2702 5.57264ZM15.6867 11.2579L15.4369 11.587L14.8068 11.9125C14.5104 12.0327 14.2292 12.0934 13.9689 12.0934C13.5745 12.0934 13.2653 12.0362 13.0564 11.9195L12.7472 11.3186C12.7472 10.993 12.8219 10.7351 12.9817 10.5367L13.6609 10.0746C13.9514 9.97661 14.3062 9.89376 14.7169 9.83658C15.0834 9.79107 15.8068 9.70822 15.9014 9.70589L16.0122 9.90076C15.9901 10.0116 15.7847 10.8705 15.6867 11.2579Z" fill="#858FA4"/>
<path d="M47.3698 5.57966C46.7619 5.23892 45.8085 5.06738 44.5074 5.06738C43.8621 5.06738 43.2179 5.11756 42.5703 5.22142C42.0895 5.29143 42.0417 5.3066 41.7453 5.36962C41.1373 5.50148 41.0428 6.11178 41.0428 6.11178L40.8467 6.91696C40.737 7.43157 41.0264 7.40823 41.1618 7.36856C41.429 7.28921 41.5726 7.21102 42.1117 7.085C42.6286 6.9683 43.1806 6.88195 43.6158 6.88429C44.2541 6.88429 44.7443 6.95313 45.0698 7.09083C45.3942 7.23086 45.5529 7.47358 45.5529 7.81782L45.5284 8.04304L45.2997 8.18891C44.3813 8.24375 43.7232 8.32777 42.9344 8.4433C42.1572 8.55182 41.471 8.74086 40.9016 9.00225C40.2936 9.27181 39.835 9.63239 39.5223 10.0922C39.213 10.5531 39.0625 11.1109 39.0625 11.7609C39.0625 12.3828 39.2819 12.8928 39.7183 13.2849C40.1536 13.6711 40.7195 13.8648 41.4034 13.8648C41.8339 13.8602 42.1689 13.8322 42.4081 13.7703L43.1817 13.5066L43.8446 13.1425L44.4444 12.7387L44.4549 12.7516L44.4 13.0106L44.3942 13.0153L44.3965 13.02C44.3242 13.3327 44.5144 13.5918 44.8224 13.6198L44.8248 13.6256H44.8528C45.0547 13.6256 45.7525 13.6256 46.0851 13.6256H46.3114L46.3359 13.6174C46.6522 13.5789 46.9509 13.3222 47.0174 13.013L48.189 7.96369L48.2509 7.54943L48.2847 7.16201C48.2859 6.44785 47.9801 5.91924 47.3698 5.57966ZM44.7921 11.2649L44.5319 11.5975L43.9076 11.9207C43.6112 12.0398 43.3288 12.1016 43.0732 12.1016C42.666 12.1016 42.3649 12.0433 42.1619 11.9266L41.8491 11.3279C41.8491 11.0012 41.925 10.7456 42.0778 10.5438C42.233 10.3536 42.4699 10.1972 42.764 10.0828C43.0511 9.9848 43.4058 9.90545 43.8189 9.84594C44.183 9.80043 44.9041 9.71524 44.9975 9.71408L45.1107 9.90895C45.0943 10.0198 44.8878 10.8752 44.7921 11.2649Z" fill="#858FA4"/>
<path d="M39.6394 4.20725C39.4387 3.81866 39.1376 3.50476 38.7572 3.25971C38.3674 3.01699 37.9053 2.84662 37.365 2.74859C36.8341 2.65407 36.2005 2.60273 35.4805 2.60156L32.1302 2.6039C31.7813 2.60973 31.4464 2.88046 31.3659 3.21303L29.1126 13.0222C29.0309 13.3548 29.2549 13.6302 29.5957 13.6302L31.2002 13.6278C31.5409 13.6302 31.8898 13.3571 31.9704 13.021L32.513 10.6393C32.5923 10.3079 32.9366 10.029 33.2831 10.0314H33.7417C35.7033 10.0314 37.2239 9.62762 38.3184 8.82827C39.4002 8.01959 39.9475 6.96119 39.9475 5.64607C39.9416 5.07311 39.8424 4.58884 39.6394 4.20725ZM36.1841 7.41513C35.701 7.76287 35.0265 7.94024 34.163 7.94024H33.7639C33.4197 7.94374 33.1968 7.66368 33.2738 7.32994L33.7592 5.25165C33.8304 4.91908 34.1782 4.64018 34.5248 4.64368L35.044 4.64018C35.6602 4.64368 36.1223 4.7452 36.4373 4.95058C36.7512 5.15596 36.8994 5.47803 36.9029 5.90513C36.9064 6.55627 36.6649 7.05805 36.1841 7.41513Z" fill="#858FA4"/>
<path d="M53.3779 3.29165C53.4514 2.95674 53.2414 2.68484 52.8971 2.68951H51.4618C51.1677 2.68951 50.9028 2.90773 50.7733 3.17612L50.694 3.29981L50.6216 3.61722L48.6157 12.7356L48.5503 13.0156L48.5527 13.0226C48.4861 13.3225 48.6705 13.5489 48.9553 13.5921L48.9798 13.6259H50.4699C50.7617 13.6259 51.0359 13.4042 51.1607 13.1312L51.2378 13.0145L53.3826 3.29281L53.3779 3.29165Z" fill="#858FA4"/>
<path d="M29.1564 5.18373C28.7771 5.18839 27.2356 5.18373 27.2356 5.18373C26.8902 5.18373 26.4468 5.46262 26.2274 5.7952C26.2274 5.7952 23.9332 9.7324 23.7104 10.128L23.4443 10.1245L22.7301 5.82203C22.6508 5.48362 22.2972 5.19423 21.8573 5.19423L20.422 5.19656C20.0766 5.19656 19.8642 5.47196 19.9424 5.80803C19.9424 5.80803 21.0323 12.0102 21.2505 13.4701C21.352 14.2752 21.2376 14.4188 21.2376 14.4188L19.8187 16.8903C19.6086 17.2264 19.7218 17.5006 20.0661 17.5006L21.7254 17.4983C22.0708 17.4983 22.5248 17.2264 22.7301 16.8891L29.1132 6.09276C29.1132 6.09393 29.727 5.17089 29.1564 5.18373Z" fill="#858FA4"/>
</svg>
