<svg width="24" height="25" viewBox="0 0 24 25" fill="none" xmlns="http://www.w3.org/2000/svg">
<path d="M14.0037 11.9192L11.1963 10.6092C10.9513 10.4954 10.75 10.6229 10.75 10.8942V13.3617C10.75 13.6329 10.9513 13.7604 11.1963 13.6467L14.0025 12.3367C14.2488 12.2217 14.2487 12.0342 14.0037 11.9192ZM12 0.12793C5.3725 0.12793 0 5.50043 0 12.1279C0 18.7554 5.3725 24.1279 12 24.1279C18.6275 24.1279 24 18.7554 24 12.1279C24 5.50043 18.6275 0.12793 12 0.12793ZM12 17.0029C5.8575 17.0029 5.75 16.4492 5.75 12.1279C5.75 7.80668 5.8575 7.25293 12 7.25293C18.1425 7.25293 18.25 7.80668 18.25 12.1279C18.25 16.4492 18.1425 17.0029 12 17.0029Z" fill="#909CB5"/>
</svg>
