<svg width="30" height="33" viewBox="0 0 30 33" fill="none" xmlns="http://www.w3.org/2000/svg">
<path d="M22.1464 15.8803L19.8047 17.9961L21.9191 20.3364L24.2609 18.2206L22.1464 15.8803Z" fill="#858FA4"/>
<path d="M17.4804 17.7846L14.3574 20.5957L17.1699 23.7201L20.2928 20.909L17.4804 17.7846Z" fill="#858FA4"/>
<path d="M26.3704 15.136L24.8105 16.542L26.2165 18.1019L27.7764 16.6959L26.3704 15.136Z" fill="#858FA4"/>
<path d="M17.9847 6.22884L15.6406 8.33887L17.7506 10.6829L20.0947 8.57289L17.9847 6.22884Z" fill="#858FA4"/>
<path d="M24.3731 10.4744L22.8164 11.8809L24.2242 13.4391L25.781 12.0326L24.3731 10.4744Z" fill="#858FA4"/>
<path d="M15.2646 12.3708L12.1387 15.1846L14.9511 18.309L18.077 15.4952L15.2646 12.3708Z" fill="#858FA4"/>
<path d="M13.0307 7.0469L9.90625 9.85938L12.7187 12.9838L15.8431 10.1713L13.0307 7.0469Z" fill="#858FA4"/>
<path d="M20.1371 10.9413L17.7988 13.0518L19.9133 15.3945L22.2516 13.284L20.1371 10.9413Z" fill="#858FA4"/>
<path d="M22.3685 5.84112L20.8086 7.24707L22.2145 8.80695L23.7744 7.401L22.3685 5.84112Z" fill="#858FA4"/>
<path d="M24.2103 20.6163L21.8672 22.7275L23.9798 25.0721L26.3229 22.9608L24.2103 20.6163Z" fill="#858FA4"/>
<path d="M20.1003 23.2718L17.0463 26.0878L11.8903 20.3498L13.3243 19.0878L9.7143 15.0458L11.1563 13.7818L7.4923 9.74384L13.2103 4.59583L15.0263 6.58384L18.0923 3.84784L19.9043 5.72583L21.1123 4.64383C20.8423 4.48783 20.5723 4.34383 20.2983 4.21383C18.5563 3.36183 16.6003 2.88184 14.5403 2.88184C7.3063 2.88184 1.4043 8.78183 1.4043 16.0178C1.4043 23.2518 7.3063 29.1518 14.5403 29.1518C16.8903 29.1518 19.1043 28.5298 21.0143 27.4398C21.6443 27.0838 22.2183 26.6978 22.7423 26.2918L20.1003 23.2718Z" fill="#858FA4"/>
</svg>
